<svg xmlns="http://www.w3.org/2000/svg" width="256" height="256" viewBox="0 0 256 256"><defs><linearGradient id="a" x1="0%" x2="100%" y1="0%" y2="100%"><stop offset="0%" stop-color="#38A1F7"/><stop offset="100%" stop-color="#076AF6"/></linearGradient><linearGradient id="b" x1="0%" x2="100%" y1="0%" y2="100%"><stop offset="0%" stop-color="#F7E16D"/><stop offset="100%" stop-color="#F2BF0D"/></linearGradient><linearGradient id="c" x1="0%" x2="100%" y1="0%" y2="100%"><stop offset="0%" stop-color="#F04B3E"/><stop offset="100%" stop-color="#C42A27"/></linearGradient></defs><path fill="#FFF" d="M128 256c70.7 0 128-57.3 128-128S198.7 0 128 0S0 57.3 0 128s57.3 128 128 128z"/><path fill="#E6E6E6" d="M128 245.3c64.8 0 117.3-52.5 117.3-117.3S192.8 10.7 128 10.7S10.7 63.2 10.7 128S63.2 245.3 128 245.3z"/><path fill="url(#a)" d="M128 234.7c58.9 0 106.7-47.8 106.7-106.7S186.9 21.3 128 21.3S21.3 69.1 21.3 128s47.8 106.7 106.7 106.7z"/><path fill="#FFF" d="m180.3 75.7-90.5 90.5c22.6 15.1 51.5 15.1 74.2 0l-45.3-45.3z"/><path fill="#D92E24" d="M180.3 75.7c-22.6-15.1-51.5-15.1-74.2 0L128 128z"/><path fill="#FFF" d="m75.7 180.3 90.5-90.5c-22.6-15.1-51.5-15.1-74.2 0l45.3 45.3z"/><path fill="#0C87F3" d="m75.7 180.3 21.2-21.2c22.6 15.1 51.5 15.1 74.2 0l21.2 21.2c-29.9 20-68.5 20-98.4 0z"/><path fill="#D92E24" d="m192.3 63.7-21.2 21.2c-22.6-15.1-51.5-15.1-74.2 0L75.7 63.7c29.9-20 68.5-20 98.4 0z"/><g fill="#FFF"><path d="M128 128h10.7v-10.7z"/><path d="M128 149.3c11.8 0 21.3-9.5 21.3-21.3s-9.5-21.3-21.3-21.3-21.3 9.5-21.3 21.3 9.5 21.3 21.3 21.3zm0-32c5.9 0 10.7 4.8 10.7 10.7s-4.8 10.7-10.7 10.7-10.7-4.8-10.7-10.7c0-5.9 4.8-10.7 10.7-10.7z"/></g></svg>